<svg width="167" height="41" viewBox="0 0 167 41" fill="none" xmlns="http://www.w3.org/2000/svg">
<path d="M42.8944 34.6201L34.1196 28.5556C37.0791 25.7387 39.7707 21.7275 42.3449 17.1923L51.1197 23.2567C47.6134 27.1478 44.6432 30.9664 42.8944 34.6201Z" fill="#29A867"/>
<path d="M42.8968 28.1634C44.3272 28.1634 45.4867 27.0304 45.4867 25.6328C45.4867 24.2352 44.3272 23.1022 42.8968 23.1022C41.4665 23.1022 40.307 24.2352 40.307 25.6328C40.307 27.0304 41.4665 28.1634 42.8968 28.1634Z" fill="white"/>
<path d="M31.0465 20.081H29.2434C29.18 20.081 29.1192 20.1056 29.0744 20.1494C29.0296 20.1932 29.0044 20.2527 29.0044 20.3146V21.0879C29.0044 21.1499 29.0296 21.2093 29.0744 21.2531C29.1192 21.2969 29.18 21.3215 29.2434 21.3215H29.5422V22.4802H30.7477V21.3215H31.0465C31.1099 21.3215 31.1707 21.2969 31.2155 21.2531C31.2603 21.2093 31.2855 21.1499 31.2855 21.0879V20.3146C31.2855 20.2527 31.2603 20.1932 31.2155 20.1494C31.1707 20.1056 31.1099 20.081 31.0465 20.081Z" fill="#E6E6E6"/>
<path d="M32.8526 27.1584C31.7484 25.5795 31.1839 23.6997 31.24 21.7881C31.241 21.744 31.2263 21.7009 31.1985 21.6662C31.1707 21.6314 31.1314 21.6072 31.0874 21.5975V21.2634H29.1831V21.5929H29.1569C29.1312 21.5929 29.1058 21.5979 29.0822 21.6075C29.0585 21.6171 29.0369 21.6312 29.0188 21.649C29.0007 21.6667 28.9863 21.6878 28.9765 21.711C28.9668 21.7341 28.9617 21.759 28.9618 21.784C28.9618 21.7887 28.962 21.7933 28.9623 21.7979C29.1123 23.8413 28.6057 25.6738 27.4426 27.2954C27.3756 27.3886 27.3414 27.5005 27.3451 27.6143L27.5533 33.9078C27.5583 34.0482 27.6186 34.1813 27.7216 34.2792C27.8246 34.3772 27.9624 34.4325 28.1061 34.4336H32.4132C32.5586 34.4325 32.6978 34.3759 32.8011 34.276C32.9044 34.176 32.9637 34.0406 32.9664 33.8985L33.0466 27.788C33.049 27.5637 32.9813 27.3441 32.8526 27.1584Z" fill="#29A867"/>
<path opacity="0.2" d="M30.6709 20.333C30.6709 20.4667 30.6165 20.5948 30.5198 20.6893C30.4231 20.7839 30.2919 20.8369 30.1551 20.8369C30.0184 20.8369 29.8872 20.7839 29.7905 20.6893C29.6937 20.5948 29.6394 20.4667 29.6394 20.333" fill="black"/>
<path d="M32.1706 29.2489H28.4217C28.3662 29.2489 28.3113 29.2606 28.2609 29.2832C28.2105 29.3059 28.1657 29.3389 28.1295 29.3801C28.0934 29.4212 28.0668 29.4695 28.0515 29.5217C28.0363 29.5738 28.0328 29.6286 28.0412 29.6822L28.6077 33.2804H31.8608L32.549 29.6943C32.5594 29.64 32.5574 29.5841 32.5432 29.5306C32.529 29.4771 32.5029 29.4273 32.4668 29.3848C32.4307 29.3423 32.3854 29.308 32.3343 29.2845C32.2831 29.261 32.2272 29.2489 32.1706 29.2489Z" fill="white"/>
<path d="M25.9024 34.6102H15.1545C15.906 30.6404 15.7331 25.8469 15.1545 20.6917H25.9024C25.3392 25.8469 25.1709 30.6405 25.9024 34.6102Z" fill="#29A867"/>
<path d="M20.5931 29.802C22.0235 29.802 23.183 28.669 23.183 27.2714C23.183 25.8738 22.0235 24.7408 20.5931 24.7408C19.1628 24.7408 18.0033 25.8738 18.0033 27.2714C18.0033 28.669 19.1628 29.802 20.5931 29.802Z" fill="white"/>
<path d="M47.5467 34.8982H13.4014L6.17082 1.49861H0V0H7.414L14.6446 33.3995H47.5467V34.8982Z" fill="#3F3D56"/>
<path d="M18.4054 41C20.2206 41 21.6921 39.5622 21.6921 37.7885C21.6921 36.0149 20.2206 34.577 18.4054 34.577C16.5903 34.577 15.1188 36.0149 15.1188 37.7885C15.1188 39.5622 16.5903 41 18.4054 41Z" fill="#3F3D56"/>
<path d="M42.9456 41C44.7607 41 46.2322 39.5622 46.2322 37.7885C46.2322 36.0149 44.7607 34.577 42.9456 34.577C41.1304 34.577 39.6589 36.0149 39.6589 37.7885C39.6589 39.5622 41.1304 41 42.9456 41Z" fill="#3F3D56"/>
<path d="M46.9241 34.1925H13.7027L7.84106 5.8877H52.4249C52.6524 5.88772 52.8772 5.93589 53.0838 6.0289C53.2904 6.12191 53.474 6.25755 53.6219 6.42649C53.7697 6.59543 53.8784 6.79366 53.9404 7.00755C54.0023 7.22144 54.0162 7.4459 53.9809 7.66551L48.4799 32.8924C48.4232 33.2553 48.2348 33.5863 47.9493 33.8249C47.6637 34.0636 47.2999 34.194 46.9241 34.1925ZM14.0634 33.7643H46.9241C47.1953 33.7654 47.4579 33.6712 47.664 33.499C47.8701 33.3267 48.0059 33.0879 48.0468 32.8259L53.5478 7.59903C53.5733 7.44053 53.5634 7.2785 53.5187 7.12412C53.474 6.96973 53.3956 6.82665 53.2888 6.70471C53.1821 6.58276 53.0496 6.48486 52.9005 6.41774C52.7513 6.35062 52.5891 6.31587 52.4249 6.31589H8.373L14.0634 33.7643Z" fill="#3F3D56"/>
<path d="M20.1611 34.1019L16.3224 6.13664L16.7547 6.06686L20.5934 34.0321L20.1611 34.1019Z" fill="#3F3D56"/>
<path d="M41.5057 33.8871L41.073 33.8186L44.7996 6.06747L45.2323 6.136L41.5057 33.8871Z" fill="#3F3D56"/>
<path d="M31.336 6.10178H30.8978V34.067H31.336V6.10178Z" fill="#3F3D56"/>
<path d="M10.0796 13.5953L10.0785 14.0235L52.4975 14.1238L52.4985 13.6956L10.0796 13.5953Z" fill="#3F3D56"/>
<path d="M49.5051 26.8228L12.2391 27.0717L12.2421 27.4999L49.5081 27.251L49.5051 26.8228Z" fill="#3F3D56"/>
<path d="M70.292 29.216C69.2 29.216 68.336 29.042 67.7 28.694C67.064 28.334 66.614 27.812 66.35 27.128C66.098 26.432 65.972 25.55 65.972 24.482V14.42H69.158V24.968C69.158 25.556 69.23 26.024 69.374 26.372C69.53 26.72 69.836 26.894 70.292 26.894C70.748 26.894 71.048 26.72 71.192 26.372C71.336 26.024 71.408 25.556 71.408 24.968V14.42H74.612V24.482C74.612 25.55 74.48 26.432 74.216 27.128C73.952 27.812 73.502 28.334 72.866 28.694C72.242 29.042 71.384 29.216 70.292 29.216ZM76.662 14.42H78.93L81.918 21.44V14.42H84.582V29H82.404L79.416 21.44V29H76.662V14.42ZM86.7519 14.42H90.4419C91.7019 14.42 92.6859 14.576 93.3939 14.888C94.1019 15.2 94.5999 15.692 94.8879 16.364C95.1879 17.024 95.3379 17.912 95.3379 19.028V24.32C95.3379 25.448 95.1879 26.348 94.8879 27.02C94.5999 27.692 94.1019 28.19 93.3939 28.514C92.6979 28.838 91.7259 29 90.4779 29H86.7519V14.42ZM90.4779 26.768C90.9459 26.768 91.2879 26.702 91.5039 26.57C91.7319 26.426 91.8759 26.228 91.9359 25.976C91.9959 25.712 92.0259 25.328 92.0259 24.824V18.47C92.0259 18.002 91.9899 17.648 91.9179 17.408C91.8579 17.156 91.7139 16.97 91.4859 16.85C91.2699 16.73 90.9279 16.67 90.4599 16.67H89.9739V26.768H90.4779ZM97.2988 14.42H103.851V16.616H100.521V20.234H103.059V22.466H100.521V26.822H103.887V29H97.2988V14.42ZM105.35 14.42H109.364C110.96 14.42 112.166 14.702 112.982 15.266C113.798 15.83 114.206 16.832 114.206 18.272C114.206 19.244 114.08 20.018 113.828 20.594C113.576 21.17 113.108 21.62 112.424 21.944L114.422 29H111.092L109.49 22.466H108.572V29H105.35V14.42ZM109.472 20.612C110.12 20.612 110.57 20.444 110.822 20.108C111.086 19.76 111.218 19.244 111.218 18.56C111.218 17.9 111.098 17.408 110.858 17.084C110.618 16.748 110.204 16.58 109.616 16.58H108.572V20.612H109.472ZM116.341 14.42H119.797L121.399 22.898L123.127 14.42H126.457L126.709 29H124.423L124.152 19.298L122.461 29H120.427L118.627 19.226L118.411 29H116.089L116.341 14.42ZM130.868 14.42H134.54L137.258 29H134.288L133.802 25.922H131.66L131.156 29H128.114L130.868 14.42ZM133.496 23.996L132.722 18.308L131.948 23.996H133.496ZM138.73 14.42H142.744C144.34 14.42 145.546 14.702 146.362 15.266C147.178 15.83 147.586 16.832 147.586 18.272C147.586 19.244 147.46 20.018 147.208 20.594C146.956 21.17 146.488 21.62 145.804 21.944L147.802 29H144.472L142.87 22.466H141.952V29H138.73V14.42ZM142.852 20.612C143.5 20.612 143.95 20.444 144.202 20.108C144.466 19.76 144.598 19.244 144.598 18.56C144.598 17.9 144.478 17.408 144.238 17.084C143.998 16.748 143.584 16.58 142.996 16.58H141.952V20.612H142.852ZM149.523 14.42H152.745V20.378L155.193 14.42H158.343L155.643 21.008L158.469 29H155.193L153.087 22.556L152.745 23.132V29H149.523V14.42ZM161.05 16.814H158.854V14.42H166.468V16.814H164.29V29H161.05V16.814Z" fill="#29A867"/>
</svg>
